<?xml version="1.0" standalone="no"?>
<!DOCTYPE svg PUBLIC "-//W3C//DTD SVG 20010904//EN"
 "http://www.w3.org/TR/2001/REC-SVG-20010904/DTD/svg10.dtd">
<svg version="1.0" xmlns="http://www.w3.org/2000/svg"
 width="300.000000pt" height="71.000000pt" viewBox="0 0 300.000000 71.000000"
 preserveAspectRatio="xMidYMid meet">

<g transform="translate(0.000000,71.000000) scale(0.100000,-0.100000)"
fill="#000000" stroke="none">
<path d="M1160 650 c-7 -33 -16 -60 -20 -60 -3 0 -14 25 -24 55 l-17 55 -57 0
c-31 0 -107 -3 -168 -6 -111 -7 -111 -7 -122 -36 l-10 -29 -27 27 c-26 26 -30
27 -108 20 -45 -3 -94 -6 -109 -6 -17 0 -28 -5 -28 -14 0 -11 -6 -12 -28 -4
-28 11 -209 3 -228 -10 -6 -4 -53 -119 -106 -257 -53 -137 -99 -257 -102 -267
-6 -12 11 -26 76 -63 46 -26 88 -48 93 -48 24 0 253 117 280 143 29 28 35 29
180 40 134 10 152 14 168 33 18 22 18 22 32 2 14 -19 20 -20 209 -11 177 8
196 11 202 28 7 24 20 23 27 -2 5 -19 14 -20 305 -20 300 0 300 0 315 22 l15
23 18 -22 c17 -20 34 -23 184 -33 256 -17 319 -26 409 -59 67 -25 86 -29 98
-19 12 10 18 8 31 -9 15 -17 150 -109 171 -116 4 -1 47 22 95 51 l87 53 -138
269 -138 269 -40 5 c-22 3 -74 8 -116 11 l-77 6 -43 -55 c-24 -31 -46 -56 -50
-56 -3 0 -11 25 -18 55 -7 30 -15 56 -19 59 -4 2 -34 7 -67 11 l-60 6 -30 -51
-30 -51 -12 47 c-6 26 -18 51 -25 55 -19 13 -116 11 -124 -2 -4 -7 -9 -7 -13
-1 -3 5 -54 12 -113 16 l-108 7 -1 -23 0 -23 -11 23 c-11 21 -16 22 -145 22
l-133 0 0 -125 0 -125 -25 0 -25 0 0 109 c0 60 -3 116 -6 125 -5 13 -27 16
-134 16 l-127 0 -13 -60z m116 -22 c-7 -29 -23 -92 -36 -140 l-23 -88 -40 0
c-37 0 -39 -2 -33 -24 3 -14 2 -27 -3 -30 -4 -3 -14 22 -21 56 l-14 62 -15
-32 c-13 -28 -20 -32 -53 -32 -36 0 -38 -2 -38 -30 0 -16 -5 -30 -10 -30 -12
0 -13 147 -3 263 l6 67 42 0 43 0 -5 -87 c-4 -81 -3 -86 11 -69 9 11 16 23 16
28 0 4 9 8 20 8 13 0 20 -7 20 -19 0 -42 18 -28 29 23 29 129 27 126 76 126
l43 0 -12 -52z m120 -35 c-4 -49 -10 -105 -13 -125 l-6 -38 63 0 c55 0 61 -2
50 -15 -9 -10 -27 -15 -54 -13 -23 1 -60 1 -83 0 -39 -2 -43 -5 -43 -27 0 -14
-5 -25 -10 -25 -6 0 -8 26 -5 68 3 37 8 111 11 165 l6 97 45 0 46 0 -7 -87z
m214 22 c0 -63 1 -65 25 -65 25 0 26 0 19 65 l-7 65 45 0 46 0 4 -57 c3 -32 3
-95 0 -140 l-5 -83 -28 0 c-25 0 -29 -4 -30 -27 l-1 -28 -8 25 c-4 14 -8 44
-9 67 -1 39 -3 42 -23 34 -13 -5 -26 -21 -30 -40 -7 -24 -14 -31 -33 -31 -20
0 -25 -5 -25 -24 0 -14 -4 -28 -10 -31 -6 -4 -10 41 -10 127 0 73 -3 150 -6
171 l-7 37 47 0 46 0 0 -65z m316 59 l51 -6 27 -122 c34 -154 34 -160 0 -152
-24 6 -25 5 -19 -24 13 -59 -12 -29 -30 35 -12 47 -22 65 -34 65 -25 0 -37
-12 -45 -42 -5 -23 -12 -28 -36 -28 -25 0 -30 -4 -30 -24 0 -14 -5 -28 -11
-32 -8 -4 -9 41 -4 157 4 90 9 167 12 172 5 9 50 9 119 1z m-979 -106 c-11
-164 -15 -178 -47 -178 -22 0 -30 -6 -39 -32 -16 -46 -23 -29 -13 35 7 45 6
57 -5 62 -33 12 -49 4 -65 -35 -14 -33 -21 -40 -45 -40 -23 0 -31 -6 -41 -32
-6 -17 -15 -29 -18 -25 -4 4 19 81 51 171 65 184 54 172 164 175 l64 1 -6
-102z m1177 93 c6 -9 21 -107 31 -203 6 -56 7 -57 31 -48 25 10 94 14 94 6 0
-2 -3 -12 -6 -21 -6 -14 -18 -15 -92 -9 l-85 7 7 -27 c3 -14 2 -26 -2 -26 -9
0 -48 187 -59 283 l-6 47 41 0 c22 0 43 -4 46 -9z m213 -13 c4 -7 17 -62 28
-123 21 -109 21 -110 50 -113 78 -7 93 -12 88 -31 -4 -15 -12 -18 -44 -15 -21
2 -57 6 -79 8 -37 4 -40 2 -40 -22 0 -54 -19 -4 -49 133 -18 77 -34 148 -37
158 -4 14 1 17 35 17 22 0 43 -6 48 -12z m-1637 -18 c14 -27 -2 -78 -35 -114
-19 -21 -21 -27 -9 -37 19 -16 18 -36 -7 -75 -14 -24 -28 -34 -45 -34 -17 0
-27 -8 -35 -26 -15 -41 -21 -22 -9 31 11 51 2 75 -29 75 -11 0 -21 -14 -29
-45 -11 -41 -15 -45 -42 -45 -25 0 -32 -6 -45 -37 -34 -81 -23 -16 25 140 27
91 50 168 50 171 0 8 42 13 122 15 68 1 79 -1 88 -19z m1957 0 c41 0 44 -2 68
-50 14 -27 34 -71 44 -97 11 -27 31 -74 45 -106 l26 -57 -41 6 -41 7 26 -52
c15 -28 22 -51 16 -51 -6 0 -27 33 -46 74 -29 60 -42 77 -66 85 -40 14 -38 15
-38 -15 0 -24 -3 -26 -38 -22 -36 3 -38 2 -34 -24 2 -16 0 -28 -5 -28 -8 0
-64 298 -63 334 0 5 24 6 53 2 28 -3 71 -6 94 -6z m-2217 -15 c11 -13 9 -26
-9 -73 -13 -31 -34 -67 -46 -78 -20 -18 -21 -24 -10 -35 20 -20 -6 -79 -34
-79 -12 0 -32 -13 -47 -29 -25 -28 -110 -69 -121 -57 -3 3 20 16 50 30 41 18
58 31 63 50 8 34 -2 46 -40 46 -27 0 -35 -6 -49 -35 -11 -23 -24 -35 -37 -35
-21 0 -36 -27 -84 -144 -9 -22 -18 -37 -21 -34 -3 2 35 110 83 239 l89 234 39
6 c81 13 161 10 174 -6z"/>
<path d="M1886 595 c-3 -9 -6 -30 -6 -46 0 -23 4 -29 21 -29 19 0 21 4 16 37
-7 43 -22 61 -31 38z"/>
<path d="M839 573 c-5 -16 -12 -34 -14 -41 -4 -12 21 -30 29 -21 2 2 7 23 11
47 8 49 -9 59 -26 15z"/>
<path d="M550 554 c-13 -34 -13 -34 14 -34 28 0 51 24 42 45 -9 25 -45 18 -56
-11z"/>
<path d="M2625 508 c4 -24 8 -43 9 -44 0 -1 14 -4 29 -8 l28 -7 -26 51 c-32
62 -49 66 -40 8z"/>
<path d="M271 519 c-16 -47 -14 -52 16 -44 39 9 53 23 53 51 0 20 -5 24 -29
24 -24 0 -31 -6 -40 -31z"/>
</g>
</svg>
