<?xml version="1.0" standalone="no"?>
<!DOCTYPE svg PUBLIC "-//W3C//DTD SVG 20010904//EN"
 "http://www.w3.org/TR/2001/REC-SVG-20010904/DTD/svg10.dtd">
<svg version="1.0" xmlns="http://www.w3.org/2000/svg"
 width="1500.000000pt" height="1501.000000pt" viewBox="0 0 1500.000000 1501.000000"
 preserveAspectRatio="xMidYMid meet">

<g transform="translate(0.000000,1501.000000) scale(0.100000,-0.100000)"
fill="#000000" stroke="none">
<path d="M4935 13914 c-275 -22 -730 -90 -1100 -165 -752 -151 -1541 -516
-2166 -999 -687 -532 -1143 -1219 -1283 -1935 -34 -171 -134 -1190 -181 -1835
-8 -113 -17 -230 -20 -260 -14 -151 -76 -1136 -95 -1515 -6 -115 -15 -291 -20
-390 -5 -99 -12 -243 -15 -320 -3 -77 -10 -234 -15 -349 -24 -519 -32 -792
-27 -931 16 -423 175 -837 446 -1169 81 -98 229 -241 406 -391 83 -70 192
-162 243 -206 306 -263 738 -464 1190 -554 374 -75 844 -80 1302 -14 249 35
276 40 386 65 60 13 123 27 139 30 17 2 55 11 85 18 30 8 98 24 150 35 101 23
207 50 330 83 93 26 431 138 445 148 6 4 21 11 35 15 14 4 43 15 65 25 22 10
65 28 95 40 57 23 408 197 472 234 294 170 465 287 718 491 151 122 502 470
595 592 38 48 73 93 79 98 7 6 21 23 34 39 l22 29 1 -44 c2 -104 -13 -530 -41
-1148 -6 -123 -7 -227 -3 -231 4 -4 683 -13 1508 -20 825 -7 1599 -16 1720
-20 121 -5 513 -11 870 -15 628 -8 656 -7 830 14 183 22 366 52 465 76 30 8
68 16 85 19 16 3 54 13 85 22 176 53 218 66 247 79 17 8 36 15 42 15 7 0 30 9
51 20 22 11 40 18 40 15 0 -4 12 1 28 9 15 8 70 35 122 59 53 24 127 63 164
86 37 22 70 41 72 41 10 0 127 81 234 162 129 96 335 301 426 423 196 260 303
478 413 840 34 110 69 227 80 260 10 33 26 85 34 115 9 30 44 145 77 255 82
272 86 287 109 390 33 146 50 321 61 640 6 165 15 383 20 485 23 445 9 621
-70 860 -41 125 -116 294 -170 382 -17 27 -30 54 -30 61 0 7 31 116 70 242 79
261 95 312 145 480 19 66 42 140 50 165 13 39 15 206 15 1262 l0 1217 -60 119
c-121 242 -272 446 -499 673 -161 160 -304 279 -475 392 -549 365 -1260 580
-2106 637 -214 14 -1398 30 -2795 37 l-1170 6 -114 -384 c-63 -211 -129 -434
-148 -495 -30 -102 -33 -128 -40 -288 -3 -97 -10 -173 -14 -169 -4 4 -53 93
-108 197 l-99 189 -169 170 c-177 179 -295 280 -434 370 -328 213 -718 345
-1189 403 -120 14 -541 26 -645 18z m510 -504 c862 -74 1478 -497 1685 -1158
48 -155 75 -352 65 -476 l-7 -83 -96 3 c-53 2 -99 8 -102 14 -8 13 -79 -793
-110 -1245 -7 -93 -14 -172 -16 -174 -2 -2 -36 -10 -76 -17 -40 -7 -210 -38
-378 -69 -168 -31 -341 -63 -385 -71 -71 -13 -200 -37 -555 -104 -308 -58
-374 -70 -377 -67 -3 3 5 98 42 557 33 396 35 452 24 580 -5 69 -20 160 -31
203 l-20 78 -42 -5 c-24 -3 -55 -10 -70 -16 -15 -5 -41 -10 -57 -10 -16 0 -29
-5 -29 -12 0 -7 -15 21 -33 62 -123 282 -354 391 -707 335 -485 -78 -854 -365
-1003 -782 -56 -154 -68 -235 -122 -823 -23 -255 -54 -630 -65 -785 -6 -77
-17 -221 -25 -320 -8 -99 -19 -250 -25 -335 -15 -248 -50 -711 -55 -755 l-5
-40 -93 4 c-50 2 -95 8 -98 13 -10 15 -24 -159 -49 -607 -6 -104 -15 -257 -20
-340 -22 -345 -45 -860 -44 -995 0 -107 5 -160 18 -204 9 -32 16 -59 14 -61
-2 -1 -419 -5 -927 -9 l-924 -6 7 258 c3 141 8 275 11 297 2 22 6 119 10 215
6 201 29 684 50 1100 8 157 17 335 20 395 3 61 8 139 11 175 3 40 2 60 -4 52
-6 -10 -23 -11 -63 -6 -30 4 -74 8 -98 8 l-43 1 6 63 c4 35 11 145 16 245 5
100 12 200 15 222 3 22 9 110 15 195 18 301 85 1045 145 1610 30 283 96 512
220 765 275 559 766 1045 1453 1439 526 302 1011 471 1672 586 69 12 159 28
200 36 344 65 750 90 1055 64z m5840 -30 c518 -11 658 -18 900 -51 840 -113
1445 -384 1917 -861 292 -295 469 -614 528 -952 23 -129 26 -268 8 -283 -16
-13 -100 -40 -150 -49 -35 -6 -38 -4 -38 17 0 12 -2 20 -4 18 -5 -5 -20 -282
-36 -674 -21 -497 -32 -570 -113 -748 -135 -293 -449 -629 -732 -782 -38 -21
-73 -40 -78 -42 -8 -5 91 -103 138 -135 17 -12 41 -31 55 -44 14 -12 40 -25
58 -29 17 -4 32 -10 32 -14 0 -9 65 -41 83 -41 7 0 25 -7 41 -15 25 -13 35
-13 86 0 32 8 63 15 69 15 17 0 137 -146 207 -252 171 -258 245 -485 244 -741
0 -71 -3 -146 -6 -167 -6 -38 -8 -39 -53 -45 -25 -3 -67 -11 -93 -16 -26 -6
-51 -8 -56 -5 -10 6 -15 -65 -37 -569 -16 -346 -29 -466 -66 -600 -41 -151
-127 -329 -227 -469 -78 -111 -277 -308 -392 -388 -326 -230 -781 -376 -1303
-418 -161 -13 -461 -13 -922 0 -767 21 -1933 40 -2507 40 l-601 0 6 138 c3 76
2 144 -2 151 -6 10 -18 9 -57 -3 -27 -8 -66 -17 -86 -21 -27 -4 -42 -14 -53
-33 -15 -27 -15 -27 -10 -2 3 14 9 169 15 345 5 176 14 430 20 565 5 135 17
421 25 635 19 485 33 815 45 1100 5 121 16 398 25 615 9 217 20 496 25 620 5
124 14 331 20 460 5 129 14 341 20 470 5 129 14 345 20 480 6 135 15 349 20
475 6 127 17 403 25 615 8 212 17 423 20 470 3 47 10 209 15 360 12 346 29
712 36 809 l6 74 1211 -6 c667 -4 1433 -11 1702 -17z m-6437 -4785 l42 -40
-77 -17 c-118 -26 -111 -29 -106 55 2 39 6 83 9 96 6 27 -7 35 132 -94z m2132
-147 c0 -42 -27 -530 -40 -717 -5 -80 -14 -149 -19 -154 -5 -5 -50 -12 -100
-15 -83 -4 -92 -7 -96 -26 -6 -32 -24 -324 -35 -586 -15 -375 -18 -410 -40
-514 -45 -221 -122 -409 -252 -616 l-53 -85 -893 -3 -893 -2 54 72 c62 84 112
167 104 174 -3 3 -31 7 -62 10 -55 4 -140 38 -133 52 2 4 20 42 41 85 100 207
119 323 137 817 9 250 29 691 45 979 2 52 7 96 9 99 5 4 41 12 281 62 77 16
205 43 285 60 80 17 177 37 215 45 39 8 147 30 240 49 222 46 516 107 735 152
96 20 234 49 305 64 171 37 165 37 165 -2z m-6229 -3388 c33 -134 59 -208 107
-305 130 -262 347 -473 625 -609 532 -259 1101 -295 2018 -129 27 5 39 -13 39
-60 0 -11 6 -33 14 -50 32 -72 30 -75 -42 -97 -126 -37 -372 -74 -697 -106
-388 -37 -816 8 -1152 121 -452 153 -766 400 -967 761 -86 154 -154 363 -170
526 l-6 57 62 4 c35 2 81 3 102 3 l39 -1 28 -115z"/>
<path d="M10556 11733 c-3 -71 -11 -249 -16 -398 -6 -148 -15 -360 -20 -470
-6 -110 -15 -321 -20 -470 -6 -148 -15 -346 -21 -438 -5 -92 -7 -172 -5 -176
8 -12 843 -35 1017 -28 325 13 577 87 703 205 81 77 144 263 165 492 17 182
33 656 26 760 -9 129 -39 269 -72 338 -70 145 -323 246 -703 282 -117 11 -693
30 -921 30 l-126 0 -7 -127z"/>
<path d="M10324 9578 c-3 -4 17 -8 44 -8 27 0 105 -2 173 -4 115 -4 119 -4 49
5 -97 13 -260 17 -266 7z"/>
<path d="M10182 7983 c-13 -307 -27 -655 -32 -773 -6 -118 -17 -384 -25 -590
-8 -206 -18 -405 -21 -441 l-6 -66 488 -13 c269 -7 509 -11 534 -9 l45 4 -38
40 c-21 22 -52 65 -69 95 -18 30 -35 57 -39 60 -4 3 126 5 289 6 265 0 307 3
393 22 172 38 302 100 364 174 66 78 116 222 140 402 20 143 48 799 39 901
-16 191 -93 351 -206 428 -78 54 -133 64 -388 71 -124 4 -238 10 -253 13 l-29
5 4 98 4 99 -80 5 c-81 6 -847 26 -1006 26 l-86 0 -22 -557z"/>
</g>
</svg>
